inDegrees=yes
name=ik_S56_A03_T01
DataType=double
version=3
OpenSimVersion=4.3-2021-08-27-4bc7ad9
endheader
time	pelvis_tilt	pelvis_list	pelvis_rotation	pelvis_tx	pelvis_ty	pelvis_tz	hip_flexion_r	hip_adduction_r	hip_rotation_r	knee_angle_r	knee_angle_r_beta	ankle_angle_r	subtalar_angle_r	mtp_angle_r	hip_flexion_l	hip_adduction_l	hip_rotation_l	knee_angle_l	knee_angle_l_beta	ankle_angle_l	subtalar_angle_l	mtp_angle_l	lumbar_extension	lumbar_bending	lumbar_rotation	arm_flex_r	arm_add_r	arm_rot_r	elbow_flex_r	pro_sup_r	wrist_flex_r	wrist_dev_r	arm_flex_l	arm_add_l	arm_rot_l	elbow_flex_l	pro_sup_l	wrist_flex_l	wrist_dev_l
0	0	0	0	0	0.9399999999999999	0	0	0	0	0	0	0	0	0	0	0	0	0	0	0	0	0	0	0	0	0	0	0	0	89.99999999963507	0	0	0	0	0	0	89.99999999869995	0	0
0.02	-1.172493832145808	1.995724924648364	-77.61772256063406	0	0.9399999999999999	0	2.753562836674062	2.703935238505375	-2.535368543347973	2.170900898648751	0.03788936841592441	0	0	0	-0.09877513919326499	0.1043858468365514	-0.817734831621567	3.618491597866885	0.06315459233852777	0	0	0	0	0	0	1.623341863887136	-1.623341863887136	0.2889227376424904	8.006502019796727	89.71107727896607	0	0	1.623341863887136	-1.623341863887136	0.2889227376424904	8.006502019796727	89.71107727808517	0	0
0.04	-1.183575255079594	1.995217597370545	-77.66197179899068	0	0.9399999999999999	0	2.762499813797825	2.689761863633261	-2.515770662546755	2.241497418217389	0.03912151012284577	0	0	0	-0.114894992106397	0.1028638116383835	-0.8318382566862942	3.606680533449366	0.06294845037627692	0	0	0	0	0	0	1.77844662901848	-1.77844662901848	0.3177657744027532	8.351953292964339	89.68223424390534	0	0	1.77844662901848	-1.77844662901848	0.3177657744027532	8.351953292964339	89.68223424302984	0	0
0.06	-1.194241621492156	2.004403984950169	-77.68670133815885	0	0.9399999999999999	0	2.758196958173127	2.699971628175062	-2.49957366525937	2.232006516257662	0.03895586263466454	0	0	0	-0.1213808368611401	0.08844197669734292	-0.8414771066189616	3.60142617558125	0.06285674453140021	0	0	0	0	0	0	1.912604604567291	-1.912604604567291	0.3425941840951352	8.611738497919703	89.65740583567397	0	0	1.912604604567291	-1.912604604567291	0.3425941840951352	8.611738497919703	89.65740583480313	0	0
0.08	-1.186418544754258	2.0160271299765	-77.70301352569214	0	0.9399999999999999	0	2.756288698779373	2.679970951445114	-2.522147510724829	2.240279196724778	0.03910024814678114	0	0	0	-0.1205217108699835	0.1010826858015269	-0.8290058684158061	3.62125422024931	0.06320280919509037	0	0	0	0	0	0	2.045870729625999	-2.045870729625999	0.367195157525803	8.849578745947882	89.63280486368997	0	0	2.045870729625999	-2.045870729625999	0.367195157525803	8.849578745947882	89.63280486282373	0	0
0.1	-1.196742080399213	2.033624845830672	-77.75030120813611	0	0.9399999999999999	0	2.757793982339538	2.678685159588749	-2.521262498091836	2.264290201598729	0.03951931923854399	0	0	0	-0.1239950968820811	0.09880379165310614	-0.8425197125351708	3.631494375345348	0.06338153361743111	0	0	0	0	0	0	2.173876978794511	-2.173876978794511	0.390788605591605	9.087196760784961	89.60921141701114	0	0	2.173876978794511	-2.173876978794511	0.390788605591605	9.087196760784961	89.60921141614934	0	0
0.12	-1.184760957845518	2.032224000315109	-77.80534025539318	0	0.9399999999999999	0	2.759515463000938	2.664262523000325	-2.540220310452705	2.325713816796333	0.04059136356222021	0	0	0	-0.1925087692376935	0.1151250654169966	-0.8655538524817284	3.573012797857033	0.06236083753849982	0	0	0	0	0	0	2.319989987128685	-2.319989987128685	0.4177470019687272	9.407260130253071	89.58225302221945	0	0	2.319989987128685	-2.319989987128685	0.4177470019687272	9.407260130253071	89.58225302136275	0	0
0.14	-1.197821924109128	2.056298757596908	-77.86417721496233	0	0.9399999999999999	0	2.75480199300116	2.661144864839032	-2.543662272931104	2.32888268236875	0.04064667070001198	0	0	0	-0.195810940338842	0.117559076571652	-0.8718083316029845	3.570007679734011	0.06230838833284173	0	0	0	0	0	0	2.320380248565065	-2.320380248565065	0.4178213233126041	9.410260500583103	89.58217870087999	0	0	2.320380248565065	-2.320380248565065	0.4178213233126041	9.410260500583103	89.58217870002331	0	0
0.16	-1.207294337949095	2.078215253156188	-77.93096965090679	0	0.9399999999999999	0	2.750226679781566	2.653804766336919	-2.549805506548828	2.33656936958373	0.04078082870048434	0	0	0	-0.2009823086907164	0.1185729992281628	-0.8776888218479906	3.563613975812186	0.06219679714800821	0	0	0	0	0	0	2.32081589953749	-2.32081589953749	0.4179045727787979	9.413665812233893	89.58209545141877	0	0	2.32081589953749	-2.32081589953749	0.4179045727787979	9.413665812233893	89.58209545056208	0	0
0.18	-1.216966185406003	2.105076552659574	-78.00812365859287	0	0.9399999999999999	0	2.758930403750613	2.647272878052364	-2.547895295526103	2.34758197408644	0.04097303490827658	0	0	0	-0.2067335558495773	0.1262954379060111	-0.887412854557234	3.554940967603283	0.06204542459871036	0	0	0	0	0	0	2.321364980604135	-2.321364980604135	0.4180099295271553	9.418042063876705	89.58199009467667	0	0	2.321364980604135	-2.321364980604135	0.4180099295271553	9.418042063876705	89.58199009382004	0	0
0.2	-1.231072961629937	2.135499048029611	-78.10785994203212	0	0.9399999999999999	0	2.75117484389174	2.612562722114982	-2.611697874885347	2.36079834554202	0.04120370410534304	0	0	0	-0.2157228700429905	0.1222166912427808	-0.9317979947411218	3.54135246256053	0.06180826044529047	0	0	0	0	0	0	2.3219797825382	-2.3219797825382	0.4181281651590712	9.422995643641915	89.58187185905182	0	0	2.3219797825382	-2.3219797825382	0.4181281651590712	9.422995643641915	89.5818718581952	0	0
0.22	-1.206788002689202	2.144558617429357	-78.12527538005675	0	0.9399999999999999	0	2.765382722489469	2.582593402532199	-2.598436002106318	2.421291943734168	0.04225951657017452	0	0	0	-0.2323286967040595	0.1741327639127051	-0.9510679721906258	3.461172009725465	0.06040884754757857	0	0	0	0	0	0	2.807851479124912	-2.807851479124912	0.5075900315879466	10.91355757687	89.49240999788279	0	0	2.807851479124912	-2.807851479124912	0.5075900315879466	10.91355757687	89.49240999704277	0	0
0.24	-1.231132699133217	2.183104143851943	-78.22194740473532	0	0.9399999999999999	0	2.75690654313217	2.56961961916049	-2.592751542065017	2.427344211477565	0.04236514856950904	0	0	0	-0.2390629307759274	0.1687298227126305	-0.9610297877969494	3.461101619736285	0.06040761901050692	0	0	0	0	0	0	2.808252595650145	-2.808252595650145	0.5076659764297757	10.9164489737594	89.49233405304548	0	0	2.808252595650145	-2.808252595650145	0.5076659764297757	10.9164489737594	89.49233405220546	0	0
0.26	-1.245532536257954	2.236797694266088	-78.35677603105685	0	0.9399999999999999	0	2.826121008300306	2.566953730167262	-2.453809699134741	2.502153526019681	0.04367081741942904	0	0	0	-0.1668226808192489	0.1630581517652542	-1.120279411852893	3.514103145882044	0.06133267015033227	0	0	0	0	0	0	2.965403749515732	-2.965403749515732	0.5365946494124216	11.354622253586	89.46340538176396	0	0	2.965403749515732	-2.965403749515732	0.5365946494124216	11.354622253586	89.46340538092936	0	0
0.28	-1.259511197637388	2.254334845133065	-78.421651830622	0	0.9399999999999999	0	2.77776738096919	2.510217160209105	-2.551120710560677	2.491682656141005	0.04348806626449823	0	0	0	-0.2678162612523525	0.1878587267581454	-1.056288053144749	3.444886127363245	0.06012460527876535	0	0	0	0	0	0	2.968991863397212	-2.968991863397212	0.5372894045895392	11.38303716957372	89.46271062662829	0	0	2.968991863397212	-2.968991863397212	0.5372894045895392	11.38303716957372	89.46271062579378	0	0
0.3	-1.283722070812051	2.284283461658783	-78.47855376683236	0	0.9399999999999999	0	2.788113369105737	2.510218580439252	-2.524668562115435	2.491061975224795	0.04347723333890608	0	0	0	-0.2915592878855351	0.1955384977794069	-1.040925898209436	3.439906034573195	0.06003768626252415	0	0	0	0	0	0	2.969475144302777	-2.969475144302777	0.5373808881998312	11.38648418468683	89.46261914302343	0	0	2.969475144302777	-2.969475144302777	0.5373808881998312	11.38648418468683	89.46261914218894	0	0
0.32	-1.301407990743155	2.317602051289797	-78.57574350274415	0	0.9399999999999999	0	2.743703782289816	2.453104419149778	-2.592841340835137	2.463314935735796	0.04299295614214216	0	0	0	-0.4217174060703335	0.2440385738749957	-0.9360725732617308	3.229111230732397	0.05635862288940663	0	0	0	0	0	0	2.976106774754848	-2.976106774754848	0.53866601338144	11.43909284311486	89.46133401791863	0	0	2.976106774754848	-2.976106774754848	0.53866601338144	11.43909284311486	89.46133401708421	0	0
0.34	-1.320577444158551	2.332647200335482	-78.62447240994005	0	0.9399999999999999	0	2.705795029491179	2.440061480667478	-2.648073464973046	2.467635870372663	0.04306837067831896	0	0	0	-0.3986960326610091	0.2375366491079104	-0.9871446802381511	3.229199603027992	0.05636016527693231	0	0	0	0	0	0	2.976791586714807	-2.976791586714807	0.5387961763192011	11.4440571991173	89.46120385498857	0	0	2.976791586714807	-2.976791586714807	0.5387961763192011	11.4440571991173	89.46120385415421	0	0
0.36	-1.35217509596014	2.365948235453339	-78.71422675274654	0	0.9399999999999999	0	2.69821126559337	2.423159914546176	-2.652273563011291	2.471642184161325	0.04313829404479917	0	0	0	-0.4206369170802316	0.2444190257304189	-0.9828426634575125	3.230554008807689	0.05638380411719606	0	0	0	0	0	0	2.977132937369467	-2.977132937369467	0.5388604745674545	11.44643209757086	89.46113955674413	0	0	2.977132937369467	-2.977132937369467	0.5388604745674545	11.44643209757086	89.46113955590978	0	0
0.3800000000000001	-1.383484033943071	2.395135487731719	-78.82247572649139	0	0.9399999999999999	0	2.708558134268239	2.403458309539353	-2.597763588755281	2.493157610487698	0.04351380907416464	0	0	0	-0.5228057258075909	0.2925388215306637	-0.9145567861322325	3.215433653800659	0.05611990413825298	0	0	0	0	0	0	2.978278167555026	-2.978278167555026	0.5390804891276708	11.4551569768799	89.46091954219702	0	0	2.978278167555026	-2.978278167555026	0.5390804891276708	11.4551569768799	89.46091954136274	0	0
0.4000000000000001	-1.416315986633977	2.422964148433501	-78.89858247516933	0	0.9399999999999999	0	2.70347482565809	2.385115923063259	-2.606810199666838	2.503913695716439	0.04370153817603131	0	0	0	-0.5528964769775365	0.3072278328532348	-0.9197850593995555	3.209141472115136	0.05601008485070691	0	0	0	0	0	0	2.978667984680421	-2.978667984680421	0.5391540984006334	11.45789887987261	89.46084593292844	0	0	2.978667984680421	-2.978667984680421	0.5391540984006334	11.45789887987261	89.46084593209416	0	0
0.4200000000000001	-1.406349126743957	2.465295460943478	-79.03970705124127	0	0.9399999999999999	0	2.743145257090675	2.331629593802175	-2.545431014386878	2.596345804643065	0.04531478281136297	0	0	0	-0.6102937771792528	0.3775691064582262	-1.007874615539377	3.107286988903574	0.05423238876074788	0	0	0	0	0	0	2.982730830628959	-2.982730830628959	0.539939113109851	11.4896246104282	89.46006091826601	0	0	2.982730830628959	-2.982730830628959	0.539939113109851	11.4896246104282	89.46006091743192	0	0
0.4400000000000001	-1.413566969831579	2.468267352577865	-79.048182501117	0	0.9399999999999999	0	2.716132501817782	2.273569418260452	-2.632455074741793	2.671074541909501	0.04661904532252006	0	0	0	-0.6723123910854873	0.4063252625911053	-0.9498570682894035	3.087316339618506	0.05388383517696238	0	0	0	0	0	0	2.986354462832234	-2.986354462832234	0.5406406957128759	11.51814337455767	89.45935933570486	0	0	2.986354462832234	-2.986354462832234	0.5406406957128759	11.51814337455767	89.45935933487084	0	0
